{
    "asset" : {
        "generator" : "Khronos glTF Blender I/O v1.6.16",
        "version" : "2.0"
    },
    "scene" : 0,
    "scenes" : [
        {
            "name" : "Scene",
            "nodes" : [
                0,
                1,
                2,
                3,
                4,
                5,
                6
            ]
        }
    ],
    "nodes" : [
        {
            "name" : "Light",
            "rotation" : [
                0.16907575726509094,
                0.7558803558349609,
                -0.27217137813568115,
                0.570947527885437
            ],
            "translation" : [
                4.076245307922363,
                5.903861999511719,
                -1.0054539442062378
            ]
        },
        {
            "mesh" : 0,
            "name" : "Cube",
            "scale" : [
                0.8874379396438599,
                -0.040018774569034576,
                1.2571288347244263
            ],
            "translation" : [
                0.38142508268356323,
                1.219623327255249,
                0.0619521327316761
            ]
        },
        {
            "mesh" : 1,
            "name" : "Cube.001",
            "scale" : [
                0.2751831114292145,
                -0.021109579131007195,
                0.3550918698310852
            ],
            "translation" : [
                1.5,
                0.6451408267021179,
                0.44999998807907104
            ]
        },
        {
            "mesh" : 2,
            "name" : "Cube.002",
            "scale" : [
                -0.2751831114292145,
                -0.021109579131007195,
                0.3550918698310852
            ],
            "translation" : [
                -0.699999988079071,
                0.6918399930000305,
                0.4000000059604645
            ]
        },
        {
            "mesh" : 3,
            "name" : "Cube.003",
            "scale" : [
                -0.2751831114292145,
                -0.021109579131007195,
                0.3550918698310852
            ],
            "translation" : [
                -0.699999988079071,
                0.6918396949768066,
                -0.4000000059604645
            ]
        },
        {
            "mesh" : 4,
            "name" : "Cube.004",
            "scale" : [
                0.2751831114292145,
                -0.021109579131007195,
                0.3550918698310852
            ],
            "translation" : [
                1.5,
                0.6451408267021179,
                -0.4000000059604645
            ]
        },
        {
            "name" : "Camera",
            "rotation" : [
                0.483536034822464,
                0.33687159419059753,
                -0.20870360732078552,
                0.7804827094078064
            ],
            "translation" : [
                7.358891487121582,
                4.958309173583984,
                6.925790786743164
            ]
        }
    ],
    "materials" : [
        {
            "doubleSided" : true,
            "name" : "Material.004",
            "pbrMetallicRoughness" : {
                "baseColorFactor" : [
                    0.20000000298023224,
                    0.029200712218880653,
                    0.00661148875951767,
                    1
                ],
                "metallicFactor" : 0,
                "roughnessFactor" : 0.5
            }
        },
        {
            "doubleSided" : true,
            "name" : "Material.007",
            "pbrMetallicRoughness" : {
                "baseColorFactor" : [
                    0.20000000298023224,
                    0.033853545784950256,
                    0.0023161049466580153,
                    1
                ],
                "metallicFactor" : 0,
                "roughnessFactor" : 0.5
            }
        },
        {
            "doubleSided" : true,
            "name" : "Material.001",
            "pbrMetallicRoughness" : {
                "baseColorFactor" : [
                    0.20000000298023224,
                    0.04089057818055153,
                    0.004933690652251244,
                    1
                ],
                "metallicFactor" : 0,
                "roughnessFactor" : 0.5
            }
        },
        {
            "doubleSided" : true,
            "name" : "Material.002",
            "pbrMetallicRoughness" : {
                "baseColorFactor" : [
                    0.20000000298023224,
                    0.033853545784950256,
                    0.0023161049466580153,
                    1
                ],
                "metallicFactor" : 0,
                "roughnessFactor" : 0.5
            }
        },
        {
            "doubleSided" : true,
            "name" : "Material.003",
            "pbrMetallicRoughness" : {
                "baseColorFactor" : [
                    0.20000000298023224,
                    0.024998927488923073,
                    0.0028660125099122524,
                    1
                ],
                "metallicFactor" : 0,
                "roughnessFactor" : 0.5
            }
        }
    ],
    "meshes" : [
        {
            "name" : "Cube.001",
            "primitives" : [
                {
                    "attributes" : {
                        "POSITION" : 0,
                        "NORMAL" : 1
                    },
                    "indices" : 2,
                    "material" : 0
                }
            ]
        },
        {
            "name" : "Cube.002",
            "primitives" : [
                {
                    "attributes" : {
                        "POSITION" : 3,
                        "NORMAL" : 4
                    },
                    "indices" : 5,
                    "material" : 1
                }
            ]
        },
        {
            "name" : "Cube.003",
            "primitives" : [
                {
                    "attributes" : {
                        "POSITION" : 6,
                        "NORMAL" : 7
                    },
                    "indices" : 5,
                    "material" : 2
                }
            ]
        },
        {
            "name" : "Cube.004",
            "primitives" : [
                {
                    "attributes" : {
                        "POSITION" : 8,
                        "NORMAL" : 9
                    },
                    "indices" : 5,
                    "material" : 3
                }
            ]
        },
        {
            "name" : "Cube.005",
            "primitives" : [
                {
                    "attributes" : {
                        "POSITION" : 10,
                        "NORMAL" : 11
                    },
                    "indices" : 5,
                    "material" : 4
                }
            ]
        }
    ],
    "accessors" : [
        {
            "bufferView" : 0,
            "componentType" : 5126,
            "count" : 650,
            "max" : [
                1.0451236963272095,
                31.42144775390625,
                1.027176022529602
            ],
            "min" : [
                -1.0626660585403442,
                -1.0000059604644775,
                -1.0428394079208374
            ],
            "type" : "VEC3"
        },
        {
            "bufferView" : 1,
            "componentType" : 5126,
            "count" : 650,
            "type" : "VEC3"
        },
        {
            "bufferView" : 2,
            "componentType" : 5123,
            "count" : 1686,
            "type" : "SCALAR"
        },
        {
            "bufferView" : 3,
            "componentType" : 5126,
            "count" : 571,
            "max" : [
                1.028327226638794,
                31.42144775390625,
                1.0266928672790527
            ],
            "min" : [
                -1.0000003576278687,
                -35.136924743652344,
                -1.0266931056976318
            ],
            "type" : "VEC3"
        },
        {
            "bufferView" : 4,
            "componentType" : 5126,
            "count" : 571,
            "type" : "VEC3"
        },
        {
            "bufferView" : 5,
            "componentType" : 5123,
            "count" : 984,
            "type" : "SCALAR"
        },
        {
            "bufferView" : 6,
            "componentType" : 5126,
            "count" : 571,
            "max" : [
                1.028327226638794,
                31.42144775390625,
                1.0266928672790527
            ],
            "min" : [
                -1.0000003576278687,
                -35.136924743652344,
                -1.0266931056976318
            ],
            "type" : "VEC3"
        },
        {
            "bufferView" : 7,
            "componentType" : 5126,
            "count" : 571,
            "type" : "VEC3"
        },
        {
            "bufferView" : 8,
            "componentType" : 5126,
            "count" : 571,
            "max" : [
                1.028327226638794,
                31.42144775390625,
                1.0266928672790527
            ],
            "min" : [
                -1.0000003576278687,
                -35.136924743652344,
                -1.0266931056976318
            ],
            "type" : "VEC3"
        },
        {
            "bufferView" : 9,
            "componentType" : 5126,
            "count" : 571,
            "type" : "VEC3"
        },
        {
            "bufferView" : 10,
            "componentType" : 5126,
            "count" : 571,
            "max" : [
                1.028327226638794,
                31.42144775390625,
                1.0266928672790527
            ],
            "min" : [
                -1.0000003576278687,
                -35.136924743652344,
                -1.0266931056976318
            ],
            "type" : "VEC3"
        },
        {
            "bufferView" : 11,
            "componentType" : 5126,
            "count" : 571,
            "type" : "VEC3"
        }
    ],
    "bufferViews" : [
        {
            "buffer" : 0,
            "byteLength" : 7800,
            "byteOffset" : 0
        },
        {
            "buffer" : 0,
            "byteLength" : 7800,
            "byteOffset" : 7800
        },
        {
            "buffer" : 0,
            "byteLength" : 3372,
            "byteOffset" : 15600
        },
        {
            "buffer" : 0,
            "byteLength" : 6852,
            "byteOffset" : 18972
        },
        {
            "buffer" : 0,
            "byteLength" : 6852,
            "byteOffset" : 25824
        },
        {
            "buffer" : 0,
            "byteLength" : 1968,
            "byteOffset" : 32676
        },
        {
            "buffer" : 0,
            "byteLength" : 6852,
            "byteOffset" : 34644
        },
        {
            "buffer" : 0,
            "byteLength" : 6852,
            "byteOffset" : 41496
        },
        {
            "buffer" : 0,
            "byteLength" : 6852,
            "byteOffset" : 48348
        },
        {
            "buffer" : 0,
            "byteLength" : 6852,
            "byteOffset" : 55200
        },
        {
            "buffer" : 0,
            "byteLength" : 6852,
            "byteOffset" : 62052
        },
        {
            "buffer" : 0,
            "byteLength" : 6852,
            "byteOffset" : 68904
        }
    ],
    "buffers" : [
        {
            "byteLength" : 75756,
            "uri" : "data:application/octet-stream;base64,"
        }
    ]
}
